<svg width="5" height="6" fill="#FF5A17"
                     x="0px" y="0px" viewBox="0 0 720.3 681.9">
                    <g>
                        <path d="M139.2,677.8c23.6-71.5,82.6-254.9,82.2-255.9
		c-0.3-0.7-50.2-37.4-110.9-81.5L0,260.1l137.6-0.3l137.6-0.3l4.6-14.6c14.2-44.9,79.2-244.2,79.9-245c0.4-0.5,19.8,57.6,43,129
		L444.9,259l137.7,0.6l137.7,0.6l-110.4,80.2c-60.7,44.1-110.7,80.6-111.1,81.2c-0.4,0.6,18.2,59.2,41.3,130.3
		s41.9,129.6,41.7,130.1s-50-35.4-110.8-79.5c-101.4-73.7-110.7-80.2-113-78.8c-1.4,0.8-51.3,37-111,80.4s-108.8,78.9-109,78.9
		C137.7,682.9,138.3,680.6,139.2,677.8L139.2,677.8z"/>
                    </g>
                </svg>