<?xml version="1.0" encoding="utf-8"?>
<!-- Generator: Adobe Illustrator 22.1.0, SVG Export Plug-In . SVG Version: 6.00 Build 0)  -->
<svg version="1.1"
	 id="svg906" inkscape:version="0.92.4 (5da689c313, 2019-01-14)" sodipodi:docname="Sun.svg" xmlns:cc="http://creativecommons.org/ns#" xmlns:dc="http://purl.org/dc/elements/1.1/" xmlns:inkscape="http://www.inkscape.org/namespaces/inkscape" xmlns:rdf="http://www.w3.org/1999/02/22-rdf-syntax-ns#" xmlns:sodipodi="http://sodipodi.sourceforge.net/DTD/sodipodi-0.dtd" xmlns:svg="http://www.w3.org/2000/svg"
	 xmlns="http://www.w3.org/2000/svg" xmlns:xlink="http://www.w3.org/1999/xlink" x="0px" y="0px" viewBox="0 0 324.8 327.4"
	 style="enable-background:new 0 0 324.8 327.4;" xml:space="preserve">
<style type="text/css">
	.st0{fill:#FF5A17;}
</style>
<sodipodi:namedview  bordercolor="#666666" borderopacity="1" fit-margin-bottom="0" fit-margin-left="0" fit-margin-right="0" fit-margin-top="0" gridtolerance="10" guidetolerance="10" id="namedview908" inkscape:current-layer="g904" inkscape:cx="254.5676" inkscape:cy="84.808225" inkscape:pageopacity="0" inkscape:pageshadow="2" inkscape:window-height="1057" inkscape:window-maximized="1" inkscape:window-width="1858" inkscape:window-x="54" inkscape:window-y="-8" inkscape:zoom="1.6819305" objecttolerance="10" pagecolor="#ffffff" showgrid="false" units="px" width="104mm">
	</sodipodi:namedview>
<desc  id="desc881">
	C:\Users\user\Documents\Âåðñòàíèå\Sun.dxf - scale = 1.000000, origin = (0.000000, 0.000000), method = manual</desc>
<g id="g898" transform="translate(-1.3441546,-650.88223)" inkscape:groupmode="layer" inkscape:label="0">
</g>
<g id="g904" transform="translate(-1.3441546,-650.88223)" inkscape:groupmode="layer" inkscape:label="Sun">
	<path id="path902" inkscape:connector-curvature="0" d="M874.9,433.4"/>
	<g id="g5180" transform="translate(-155.17883,318.08688)">
		<g id="g5178" inkscape:label="Clip">
			<path id="path1465" inkscape:connector-curvature="0" class="st0" d="M314.6,659.8c-0.6-1.2-1.2-4.9-1.9-13.3
				c-1.8-20.1-3-23.9-9.7-32.5c-1.7-2.1-3.5-4.6-4-5.5c-2.8-4.6-3.7-9.1-4.1-20.7c-0.3-9.5-0.8-12.6-2.2-13.4
				c-1.6-0.9-3.4,0.9-8.6,8.7c-13.9,20.7-20.3,29.1-30.4,40c-5.1,5.6-14.6,15-15.1,15c-0.5,0-0.1-2.3,1.8-9.1
				c3.2-11.2,3.4-12.9,3.8-23.3c0.4-11.3,1.3-15.9,6.4-32.8c5.2-17.3,5.5-18.8,4.9-20.4c-0.4-0.9-0.7-1.2-1.7-1.4
				c-3.8-1.1-13.6,3.9-27.9,14.1c-11.5,8.3-14.6,10.1-20.1,12c-7.4,2.6-17.3,4.2-20.4,3.2c-3.2-1-1.7-3.4,8.7-14.7
				c11.5-12.5,15.8-18.5,26.4-37c6.5-11.4,8.1-14.9,8.2-18.2c0-1.5-0.1-1.8-0.8-2.6c-0.5-0.5-1.4-1-2.1-1.2c-2.9-0.7-6.2-0.3-19,2.5
				c-17.2,3.7-26.2,4.9-36.7,4.9c-7.6,0-11.6-0.7-12.8-2.4c-0.5-0.7-0.5-0.9-0.2-1.8c1-2.3,6.8-6.8,13.6-10.3
				c3.6-1.9,6.1-3,11.6-4.9c4.7-1.7,11.3-4.4,17.7-7.4c8.7-4.1,31.7-15.7,32.8-16.5c1.9-1.5,2.4-3.2,1.4-5.1
				c-1.1-2.1-7.2-5.5-18.6-10.4c-19.6-8.3-29.6-14.2-36.9-21.4c-4.2-4.1-6.5-8-6.2-10c0.3-1.6,3.7-1.9,11.5-1.1
				c9.1,0.9,12.9,1.1,22.5,0.7c15.8-0.6,18.3,0,27,6.1c7.2,5.1,11.3,6.7,16.5,6.7c3.9,0,5.7-1.2,6.1-4.4c0.7-4.8-4.4-17.4-10.7-26.7
				c-1.6-2.3-3.9-5.8-5.2-7.7c-2.7-4-5-8.6-5.8-11.4c-0.8-3-0.7-10.2,0.3-17.4c0.4-3.1,0.9-7.7,1.1-10.2c0.2-2.5,0.3-4.6,0.4-4.7
				c0.2-0.2,0.7,0.9,2.8,5.7c4.3,9.8,7,14.3,10.6,17.9c2.6,2.6,4.8,4.2,9.5,6.8c7.2,4.1,10,6.7,20.4,18.3
				c11,12.4,15.5,16.8,18.7,18.4c1.6,0.8,3.1,0.9,3.9,0.2c1.8-1.6,1.6-6.1-0.9-24.7c-1.3-9.1-1.3-9.2-1.3-18.1
				c0-9.4,0.2-11.7,1.8-22c1.9-12.1,4.8-23.3,6.1-23.3c0.3,0,0.8,1.5,2,5.8c1.7,6.4,3.7,11.7,8.4,22.2c1.7,3.8,4.3,9.9,5.6,13.4
				c7.6,19.4,9,22.5,14.8,33.6c1.8,3.5,3.6,6.8,3.8,7.4l0.5,1l2.9-2.3c4.2-3.2,9.1-7.5,11.1-9.7c4.4-4.7,6.6-8.6,9.8-16.9
				c5-13.1,8.2-17.4,16.7-22.4c3-1.8,5.2-3.7,6.8-5.9c0.5-0.7,0.5-0.7,0.4,1.6c-0.1,1.3-0.6,5.3-1.2,8.9c-2.1,13.3-2,12.5-2.1,25.9
				c-0.1,12.3-0.3,17.1-1.2,25.3c-0.9,8.5-2,12.9-4.6,19.5c-1,2.4-1.7,4.6-1.7,5c0,0.7,0.8,1.5,1.5,1.5c2.3,0,10.8-6,21.4-15.1
				c2.2-1.9,5.7-4.9,7.7-6.7c7.7-6.6,11.3-8.6,18.6-10c3.5-0.7,10-1.4,15.1-1.6c2-0.1,4.8-0.3,6.2-0.3l2.7-0.2l-1.2,0.9
				c-1.5,1.1-2.4,2.5-4,6.7c-2,5.1-3.3,6.8-10.8,13.8c-5.9,5.4-6.6,6.5-12.9,19.8c-2.5,5.2-3.9,7.4-6.9,10.5
				c-4.1,4.2-8.5,7.4-17.4,12.2c-5,2.8-6.1,3.5-6.1,4.4c0,1.6,2.1,2.1,12,3.2c13.5,1.5,15.8,2,24.8,5.9c7,3,12,4.2,20.1,4.8
				c8,0.6,17.9-0.4,27.5-2.7c2-0.5,3.7-0.9,3.8-0.8c0.2,0.2-4.1,2.6-14.4,8.2c-5.4,3-13.3,7.4-17.5,9.9c-8.8,5.2-13,7.4-16.1,8.4
				c-4.3,1.4-6.1,1.6-17.5,1.9c-13.5,0.3-17.6,0.8-23.7,2.6c-3.1,0.9-3.9,1.4-3.9,2.4c0,1,1.2,1.5,7,3.2
				c10.7,3.2,12.8,4.5,17.8,11.6c3.3,4.6,4.3,5.3,12.1,8.2c5.8,2.1,8.8,3.7,12.3,6.4c5.9,4.6,12.9,13,12.2,14.8
				c-0.2,0.5-1.4,0.3-5.7-1.3c-7.6-2.8-11.1-3.2-18.9-2.3c-12.6,1.5-20.1,0.1-45.8-8.2c-5.7-1.8-6.6-2-6.9-1.5
				c-0.3,0.5,0.4,1.1,2.6,2.3c1.2,0.7,2.2,1.4,2.4,1.9c0.6,1.2,0.8,10.4,0.4,17.2c-0.7,12.7,0.6,15.5,11.8,24.9
				c2.8,2.4,5.9,5.2,6.9,6.2c3.9,4.2,4.9,8.5,3.8,16.1c-0.7,4.7-2.8,15.8-3,16.3c-0.4,0.7-1.1-0.7-3.7-7
				c-4.9-11.9-6.9-14.6-13.1-17.6c-1.9-0.9-5.4-2.3-7.9-3.2c-13-4.5-16.6-7.5-30.5-25.7c-5.6-7.3-8.1-9.7-10.3-9.7
				c-4.4,0-5.6,13-3.5,37.2c0.2,2.7,0.4,7.2,0.4,10c0,8.8-1.1,13-5.5,21.7c-2.9,5.7-7.2,13.2-8,13.8
				C315,660.3,314.8,660.3,314.6,659.8L314.6,659.8z"/>
		</g>
	</g>
</g>
</svg>
