<?xml version="1.0" encoding="UTF-8" standalone="no"?>
<svg
   xmlns:dc="http://purl.org/dc/elements/1.1/"
   xmlns:cc="http://creativecommons.org/ns#"
   xmlns:rdf="http://www.w3.org/1999/02/22-rdf-syntax-ns#"
   xmlns:svg="http://www.w3.org/2000/svg"
   xmlns="http://www.w3.org/2000/svg"
   xmlns:sodipodi="http://sodipodi.sourceforge.net/DTD/sodipodi-0.dtd"
   xmlns:inkscape="http://www.inkscape.org/namespaces/inkscape"
   width="424"
   height="392"
   version="1.1"
   id="svg1448"
   sodipodi:docname="Telephone.svg"
   inkscape:version="0.92.4 (5da689c313, 2019-01-14)">
  <metadata
     id="metadata1452">
    <rdf:RDF>
      <cc:Work
         rdf:about="">
        <dc:format>image/svg+xml</dc:format>
        <dc:type
           rdf:resource="http://purl.org/dc/dcmitype/StillImage" />
        <dc:title></dc:title>
      </cc:Work>
    </rdf:RDF>
  </metadata>
  <sodipodi:namedview
     pagecolor="#ffffff"
     bordercolor="#666666"
     borderopacity="1"
     objecttolerance="10"
     gridtolerance="10"
     guidetolerance="10"
     inkscape:pageopacity="0"
     inkscape:pageshadow="2"
     inkscape:window-width="1858"
     inkscape:window-height="1057"
     id="namedview1450"
     showgrid="false"
     inkscape:zoom="1.1893044"
     inkscape:cx="12.911643"
     inkscape:cy="258.82606"
     inkscape:window-x="54"
     inkscape:window-y="-8"
     inkscape:window-maximized="1"
     inkscape:current-layer="g1446" />
  <desc
     id="desc1425">C:\Users\user\Desktop\Êîðçèíà\×åðòåæ1.dxf - scale = 1.000000, origin = (0.000000, 0.000000), method = manual</desc>
  <defs
     id="defs1440">
    <marker
       id="DistanceX"
       orient="auto"
       refX="0"
       refY="0"
       style="overflow:visible">
      <path
         d="M 3,-3 -3,3 M 0,-5 V 5"
         style="stroke:#000000;stroke-width:0.5"
         id="path1427"
         inkscape:connector-curvature="0" />
    </marker>
    <pattern
       height="8"
       id="Hatch"
       patternUnits="userSpaceOnUse"
       width="8"
       x="0"
       y="0">
      <path
         d="M8 4 l-4,4"
         linecap="square"
         stroke="#000000"
         stroke-width="0.25"
         id="path1430" />
      <path
         d="M6 2 l-4,4"
         linecap="square"
         stroke="#000000"
         stroke-width="0.25"
         id="path1432" />
      <path
         d="M4 0 l-4,4"
         linecap="square"
         stroke="#000000"
         stroke-width="0.25"
         id="path1434" />
    </pattern>
    <symbol
       id="*Model_Space" />
    <symbol
       id="*Paper_Space" />
    <symbol
       id="*Paper_Space0" />
  </defs>
  <g
     inkscape:groupmode="layer"
     inkscape:label="0"
     id="g1446"
     transform="translate(0,-730.51992)">
    <path
       style="fill:#996656;fill-opacity:1;fill-rule:evenodd;stroke:#ff5a17;stroke-width:0;stroke-linecap:butt;stroke-linejoin:round;stroke-miterlimit:4;stroke-dasharray:none;stroke-opacity:1;paint-order:stroke markers fill"
       d="m 424.10987,992.06194 c -0.55212,-0.19151 -3.53591,-4.02883 -5.81667,-7.48059 -6.743,-10.20502 -14.1556,-24.12822 -22.62699,-42.50056 -7.15723,-15.52228 -11.08145,-23.03631 -15.69158,-30.04602 -8.05613,-12.24935 -17.63774,-21.46217 -28.72748,-27.62175 -6.67689,-3.70855 -13.62612,-6.01657 -21.36536,-7.096 -4.24748,-0.59241 -15.24426,-0.62747 -24.69931,-0.0787 -4.71599,0.2737 -10.92152,0.48238 -15.15004,0.50947 -6.99024,0.0448 -7.18233,0.0572 -8.00176,0.51775 -1.57699,0.88632 -1.97953,2.62937 -1.21766,5.27266 0.41037,1.42377 0.61393,9.25877 0.36318,13.97876 l -0.16751,3.15311 -1.26124,0.13803 c -1.88834,0.20668 -13.06418,0.77606 -19.86456,1.01206 -6.50255,0.22567 -21.74769,0.50892 -45.50979,0.84557 -8.32419,0.11794 -15.91529,0.27226 -16.8691,0.34293 -1.3134,0.0973 -1.73421,0.0649 -1.73421,-0.13352 0,-0.4116 1.06876,-2.21266 4.76457,-8.02922 1.88842,-2.97205 3.4335,-5.45672 3.4335,-5.52147 0,-0.0648 -0.47297,0.12193 -1.05104,0.41486 -0.57806,0.29293 -1.05103,0.49109 -1.05103,0.44036 0,-0.0507 0.95359,-2.72459 2.11908,-5.94189 11.33983,-31.3032 16.3304,-49.21297 19.31943,-69.33213 0.36071,-2.42789 0.75232,-4.78146 0.87024,-5.23015 l 0.21442,-0.81581 1.29828,0.10697 c 0.72325,0.0596 2.74139,0.57869 4.55648,1.172 5.87972,1.92195 8.33909,2.37533 15.62003,2.87949 5.60718,0.38826 7.32731,0.63698 8.7059,1.2588 2.04973,0.92454 2.31148,2.217 1.61729,7.98594 -0.84525,7.02433 -0.17191,10.21298 2.4784,11.73666 1.88549,1.08398 3.5418,1.18039 9.62583,0.56028 6.04975,-0.61662 12.05332,-0.72981 22.52564,-0.42469 7.51369,0.21892 11.07508,0.22109 18.3602,0.0112 12.32803,-0.35521 17.54547,-0.0274 23.33905,1.46642 5.32456,1.37288 10.86181,4.20943 17.43358,8.93065 3.90974,2.80879 17.39052,13.16485 22.60415,17.36473 8.57906,6.9109 14.7565,12.92691 19.97968,19.45755 3.21313,4.01743 14.44154,19.12291 17.92853,24.11909 6.84596,9.80889 10.34798,17.23843 11.37281,24.12729 0.16654,1.11954 0.40412,4.00462 0.52795,6.41131 0.46664,9.0699 0.67506,12.2209 1.47815,22.34849 1.29339,16.31067 1.34218,17.17263 1.35634,23.96359 0.0154,7.38642 -0.2776,10.00741 -1.08738,9.72653 z"
       id="path2003"
       inkscape:connector-curvature="0" />
    <path
       style="fill:#996656;fill-opacity:1;fill-rule:evenodd;stroke:#ff5a17;stroke-width:0;stroke-linecap:butt;stroke-linejoin:round;stroke-miterlimit:4;stroke-dasharray:none;stroke-opacity:1;paint-order:stroke markers fill"
       d="m 249.26731,1122.2633 c -20.94914,-2.08 -36.97936,-9.291 -64.89008,-29.19 -26.57681,-18.948 -47.27675,-36.7506 -75.14549,-64.6274 C 89.709897,1008.9184 60.200577,977.05015 27.160667,939.81407 12.737127,923.55871 5.1674373,911.39811 1.8217674,899.10754 l -1.37568995,-5.05372 0.18398,-43.99706 c 0.10119,-24.19839 0.43464995,-46.62448 0.74101995,-49.83577 0.95004,-9.95806 3.6562299,-15.20989 15.9860496,-31.0237 7.0955,-9.10045 12.91232,-17.08365 19.61921,-26.92606 6.35697,-9.32889 9.95673,-11.42273 19.63818,-11.42273 13.16359,0 23.21352,5.73543 32.29612,18.4312 5.826028,8.14368 7.792708,10.39644 19.464433,22.29581 6.09423,6.2131 12.73333,13.53086 14.75354,16.26169 4.80175,6.49079 9.38194,15.80779 10.56563,21.49255 1.70127,8.17053 0.22392,12.85018 -6.6633,21.1067 -2.18219,2.61604 -6.59507,8.26901 -9.8064,12.56215 -7.31499,9.77919 -11.08293,13.19707 -18.379625,16.67209 -5.58671,2.66065 -7.912658,4.28486 -8.985278,6.27443 -0.97041,1.79997 -2.28912,13.03197 -2.30037,19.59327 -0.0274,15.93998 4.28187,28.91471 13.941983,41.97819 6.3072,8.5293 21.70115,23.0206 83.85141,78.93462 27.69143,24.9128 28.76481,25.8247 32.72591,27.8023 7.78115,3.8847 18.00804,4.8664 23.7568,2.2805 7.51841,-3.3818 10.24293,-8.5926 13.1006,-25.0556 2.77297,-15.97504 4.51144,-19.69904 10.73856,-23.00319 5.60155,-2.97222 9.82192,-3.94896 16.88785,-3.90841 7.05758,0.0405 13.19195,1.17403 20.71089,3.82709 11.09952,3.91646 18.84263,8.72275 35.47455,22.01971 5.88609,4.7059 14.31391,11.3431 18.72848,14.7493 17.30495,13.3526 24.23755,23.1812 24.8522,35.2341 0.2529,4.9594 0.16899,5.4162 -1.68798,9.1882 -1.73065,3.5154 -4.23771,6.2384 -21.9234,23.8113 -10.98312,10.913 -21.51158,20.8738 -23.39659,22.1351 -7.0127,4.6921 -7.98395,4.8733 -28.97595,5.4052 -10.30067,0.261 -22.74173,0.7501 -27.6468,1.0867 -8.34109,0.5726 -24.73376,0.7061 -29.43047,0.2398 z"
       id="path2009"
       inkscape:connector-curvature="0" />
  </g>
</svg>
